<mxfile host="app.diagrams.net" modified="2023-05-07T20:51:58.916Z" agent="Mozilla/5.0 (Windows NT 10.0; Win64; x64) AppleWebKit/537.36 (KHTML, like Gecko) Chrome/112.0.0.0 Safari/537.36" etag="9u0tuc6QihxS9kelH88T" version="21.1.4" type="github">
  <diagram name="PÃ¡gina-1" id="bSJGP8Rl3pwdWKhk3Nbw">
    <mxGraphModel dx="880" dy="484" grid="1" gridSize="10" guides="1" tooltips="1" connect="1" arrows="1" fold="1" page="1" pageScale="1" pageWidth="827" pageHeight="1169" math="0" shadow="0">
      <root>
        <mxCell id="0" />
        <mxCell id="1" parent="0" />
        <mxCell id="TybLUOuc99CVGpNBgaMz-9" value="" style="rounded=0;whiteSpace=wrap;html=1;fillColor=#f5f5f5;gradientColor=#b3b3b3;strokeColor=#666666;" parent="1" vertex="1">
          <mxGeometry x="13" y="40" width="800" height="620" as="geometry" />
        </mxCell>
        <mxCell id="TybLUOuc99CVGpNBgaMz-1" value="Demo" style="html=1;shadow=0;dashed=0;fontSize=16;align=left;spacing=15;fillColor=none;strokeColor=none;" parent="1" vertex="1">
          <mxGeometry x="250" y="50" width="563" height="60" as="geometry" />
        </mxCell>
        <mxCell id="TybLUOuc99CVGpNBgaMz-2" value="Pricing" style="fillColor=none;strokeColor=none;fontSize=14;fontColor=#080808;align=center;" parent="TybLUOuc99CVGpNBgaMz-1" vertex="1">
          <mxGeometry width="70" height="40" relative="1" as="geometry">
            <mxPoint x="70" y="10" as="offset" />
          </mxGeometry>
        </mxCell>
        <mxCell id="TybLUOuc99CVGpNBgaMz-3" value="Featured Chatbots" style="fillColor=none;strokeColor=none;fontSize=14;fontColor=#9A9DA0;align=center;" parent="TybLUOuc99CVGpNBgaMz-1" vertex="1">
          <mxGeometry width="160" height="40" relative="1" as="geometry">
            <mxPoint x="157" y="10" as="offset" />
          </mxGeometry>
        </mxCell>
        <mxCell id="TybLUOuc99CVGpNBgaMz-6" value="Login" style="html=1;shadow=0;dashed=0;shape=mxgraph.bootstrap.rrect;rSize=5;fontSize=14;fontColor=#1CA5B8;strokeColor=#1CA5B8;fillColor=none;" parent="TybLUOuc99CVGpNBgaMz-1" vertex="1">
          <mxGeometry x="1" width="91" height="40" relative="1" as="geometry">
            <mxPoint x="-101" y="10" as="offset" />
          </mxGeometry>
        </mxCell>
        <mxCell id="TybLUOuc99CVGpNBgaMz-16" value="Power by PortalUp&lt;br&gt;" style="text;html=1;align=center;verticalAlign=middle;resizable=0;points=[];autosize=1;strokeColor=none;fillColor=none;" parent="1" vertex="1">
          <mxGeometry x="353" y="630" width="120" height="30" as="geometry" />
        </mxCell>
        <mxCell id="TybLUOuc99CVGpNBgaMz-17" value="Logo" style="text;html=1;align=center;verticalAlign=middle;resizable=0;points=[];autosize=1;strokeColor=none;fillColor=none;fontSize=16;" parent="1" vertex="1">
          <mxGeometry x="60" y="65" width="60" height="30" as="geometry" />
        </mxCell>
        <mxCell id="kCEi4esk9JjT-v6ZgHjA-2" value="" style="image;image=img/lib/atlassian/Hipchat_Logo.svg;html=1;direction=east;flipH=0;flipV=0;" parent="1" vertex="1">
          <mxGeometry x="760" y="410" width="40" height="40" as="geometry" />
        </mxCell>
        <mxCell id="kCEi4esk9JjT-v6ZgHjA-3" value="" style="image;image=img/lib/atlassian/Hipchat_Logo.svg;html=1;" parent="1" vertex="1">
          <mxGeometry x="25" y="53" width="40" height="42" as="geometry" />
        </mxCell>
        <mxCell id="7ZhCz9Z_RdqSZZThtLXe-19" value="" style="html=1;shadow=0;dashed=0;shape=mxgraph.bootstrap.rrect;rSize=5;fillColor=#ffffff;strokeColor=#999999;" vertex="1" parent="1">
          <mxGeometry x="304" y="200" width="220" height="345" as="geometry" />
        </mxCell>
        <mxCell id="7ZhCz9Z_RdqSZZThtLXe-20" value="Email address" style="fillColor=none;strokeColor=none;align=left;spacing=20;fontSize=14;" vertex="1" parent="7ZhCz9Z_RdqSZZThtLXe-19">
          <mxGeometry width="220" height="40" relative="1" as="geometry">
            <mxPoint y="10" as="offset" />
          </mxGeometry>
        </mxCell>
        <mxCell id="7ZhCz9Z_RdqSZZThtLXe-21" value="email@example.com" style="html=1;shadow=0;dashed=0;shape=mxgraph.bootstrap.rrect;rSize=5;fillColor=none;strokeColor=#999999;align=left;spacing=15;fontSize=14;fontColor=#6C767D;" vertex="1" parent="7ZhCz9Z_RdqSZZThtLXe-19">
          <mxGeometry width="180" height="30" relative="1" as="geometry">
            <mxPoint x="20" y="50" as="offset" />
          </mxGeometry>
        </mxCell>
        <mxCell id="7ZhCz9Z_RdqSZZThtLXe-22" value="Password" style="fillColor=none;strokeColor=none;align=left;spacing=20;fontSize=14;" vertex="1" parent="7ZhCz9Z_RdqSZZThtLXe-19">
          <mxGeometry width="220" height="40" relative="1" as="geometry">
            <mxPoint y="90" as="offset" />
          </mxGeometry>
        </mxCell>
        <mxCell id="7ZhCz9Z_RdqSZZThtLXe-23" value="Password" style="html=1;shadow=0;dashed=0;shape=mxgraph.bootstrap.rrect;rSize=5;fillColor=none;strokeColor=#999999;align=left;spacing=15;fontSize=14;fontColor=#6C767D;" vertex="1" parent="7ZhCz9Z_RdqSZZThtLXe-19">
          <mxGeometry width="180" height="30" relative="1" as="geometry">
            <mxPoint x="20" y="130" as="offset" />
          </mxGeometry>
        </mxCell>
        <mxCell id="7ZhCz9Z_RdqSZZThtLXe-24" value="Remember me" style="html=1;shadow=0;dashed=0;shape=mxgraph.bootstrap.rrect;rSize=2;fillColor=#EDEDED;strokeColor=#999999;align=left;fontSize=14;fontColor=#000000;labelPosition=right;verticalLabelPosition=middle;verticalAlign=middle;spacingLeft=5;spacingTop=-2;gradientColor=#DEDEDE;" vertex="1" parent="7ZhCz9Z_RdqSZZThtLXe-19">
          <mxGeometry width="10" height="10" relative="1" as="geometry">
            <mxPoint x="20" y="180" as="offset" />
          </mxGeometry>
        </mxCell>
        <mxCell id="7ZhCz9Z_RdqSZZThtLXe-25" value="Sign in" style="html=1;shadow=0;dashed=0;shape=mxgraph.bootstrap.rrect;rSize=5;fillColor=#0085FC;strokeColor=none;align=center;fontSize=14;fontColor=#FFFFFF;" vertex="1" parent="7ZhCz9Z_RdqSZZThtLXe-19">
          <mxGeometry width="70" height="40" relative="1" as="geometry">
            <mxPoint x="20" y="210" as="offset" />
          </mxGeometry>
        </mxCell>
        <mxCell id="7ZhCz9Z_RdqSZZThtLXe-26" value="" style="shape=line;strokeColor=#999999;perimeter=none;resizeWidth=1;" vertex="1" parent="7ZhCz9Z_RdqSZZThtLXe-19">
          <mxGeometry width="220" height="10" relative="1" as="geometry">
            <mxPoint y="260" as="offset" />
          </mxGeometry>
        </mxCell>
        <mxCell id="7ZhCz9Z_RdqSZZThtLXe-27" value="New around here? Sign up&lt;br&gt;&lt;br&gt;Forgot password?" style="html=1;fillColor=none;strokeColor=none;align=left;spacing=20;fontSize=14;" vertex="1" parent="7ZhCz9Z_RdqSZZThtLXe-19">
          <mxGeometry width="220" height="60" relative="1" as="geometry">
            <mxPoint y="275" as="offset" />
          </mxGeometry>
        </mxCell>
      </root>
    </mxGraphModel>
  </diagram>
</mxfile>
